<svg xmlns="http://www.w3.org/2000/svg">

<symbol id="ic_bell" width="28" height="22"  viewBox="0 0 20.729 24.875">
  <path id="Path_2416" data-name="Path 2416" d="M137.219,420.664a3.891,3.891,0,0,1-3.887-3.887.777.777,0,0,1,1.555,0,2.332,2.332,0,0,0,4.664,0,.777.777,0,0,1,1.555,0A3.891,3.891,0,0,1,137.219,420.664Zm0,0" transform="translate(-126.854 -395.789)" fill="#919ba8"/>
  <path id="Path_2417" data-name="Path 2417" d="M18.915,82.656H1.814A1.814,1.814,0,0,1,.634,79.464a6.946,6.946,0,0,0,2.475-5.319v-2.89a7.255,7.255,0,0,1,14.51,0v2.89a6.944,6.944,0,0,0,2.465,5.312,1.813,1.813,0,0,1-1.169,3.2Zm-8.551-17.1a5.707,5.707,0,0,0-5.7,5.7v2.89a8.495,8.495,0,0,1-3.016,6.5.258.258,0,0,0-.093.2.262.262,0,0,0,.259.259h17.1a.262.262,0,0,0,.259-.259.256.256,0,0,0-.091-.2,8.5,8.5,0,0,1-3.018-6.5v-2.89A5.707,5.707,0,0,0,10.365,65.555Zm0,0" transform="translate(0 -60.891)" fill="#919ba8"/>
  <path id="Path_2418" data-name="Path 2418" d="M198.109,4.664a.778.778,0,0,1-.777-.777V.777a.777.777,0,0,1,1.555,0V3.887A.778.778,0,0,1,198.109,4.664Zm0,0" transform="translate(-187.745)" fill="#919ba8"/>
</symbol>

<symbol id="ic_brand"  width="28" height="16"  viewBox="0 0 14.484 13.882">
  <g transform="translate(0 -0.499)">
    <path id="Path_2517" data-name="Path 2517" d="M13.354,7.281,13.008,4.3c1.35-.978,1.909-2.62,1.1-3.428a1.519,1.519,0,0,0-1.48-.309,3.388,3.388,0,0,0-1.523.909l-.016.017L7.1,1.027,0,8.126l6.254,6.254Zm-.518-5.894a.714.714,0,0,1,.673.086c.314.314.026,1.186-.617,1.819l-.1-.854L12.1,1.743A2.262,2.262,0,0,1,12.835,1.387ZM7.41,1.918l3.082.357a2.914,2.914,0,0,0-.288.7l-.3-.3-.6.6,1.8,1.8.6-.6-.6-.6a.714.714,0,0,1-.086-.673,2.33,2.33,0,0,1,.415-.817l.116.013.432.432.48,4.142L6.254,13.179,1.2,8.126Zm0,0" transform="translate(0 0)" fill="#fff"/>
  </g>
</symbol>

<symbol id="ic_cat" width="28" height="16"  viewBox="0 0 13.251 17.668">
  <g  transform="translate(-64)">
    <g id="Group_62" data-name="Group 62" transform="translate(66.209 6.626)">
      <g id="Group_61" data-name="Group 61">
        <path id="Path_2506" data-name="Path 2506" d="M132.279,192.17a.554.554,0,0,0-.782,0l-1.818,1.819-.713-.714a.552.552,0,0,0-.781.781l1.1,1.1a.547.547,0,0,0,.39.162.555.555,0,0,0,.391-.161l2.209-2.209A.552.552,0,0,0,132.279,192.17Z" transform="translate(-128.024 -192.008)" fill="#fff"/>
      </g>
    </g>
    <g id="Group_64" data-name="Group 64" transform="translate(66.209 11.043)">
      <g id="Group_63" data-name="Group 63">
        <path id="Path_2507" data-name="Path 2507" d="M132.279,320.17a.554.554,0,0,0-.782,0l-1.818,1.819-.713-.713a.552.552,0,0,0-.781.781l1.1,1.1a.553.553,0,0,0,.781,0l2.209-2.209A.552.552,0,0,0,132.279,320.17Z" transform="translate(-128.024 -320.008)" fill="#fff"/>
      </g>
    </g>
    <g id="Group_66" data-name="Group 66" transform="translate(71.73 7.73)">
      <g id="Group_65" data-name="Group 65">
        <path id="Path_2508" data-name="Path 2508" d="M290.761,224h-2.209a.552.552,0,0,0,0,1.1h2.209a.552.552,0,0,0,0-1.1Z" transform="translate(-288 -224)" fill="#fff"/>
      </g>
    </g>
    <g id="Group_68" data-name="Group 68" transform="translate(71.73 12.147)">
      <g id="Group_67" data-name="Group 67">
        <path id="Path_2509" data-name="Path 2509" d="M290.761,352h-2.209a.552.552,0,0,0,0,1.1h2.209a.552.552,0,1,0,0-1.1Z" transform="translate(-288 -352)" fill="#fff"/>
      </g>
    </g>
    <g id="Group_70" data-name="Group 70" transform="translate(64)">
      <g id="Group_69" data-name="Group 69">
        <path id="Path_2510" data-name="Path 2510" d="M76.147,2.209H73.938V1.656a.552.552,0,0,0-.552-.552h-1.2a1.658,1.658,0,0,0-3.125,0h-1.2a.552.552,0,0,0-.552.552v.552H65.1a1.106,1.106,0,0,0-1.1,1.1V16.564a1.106,1.106,0,0,0,1.1,1.1H76.147a1.106,1.106,0,0,0,1.1-1.1V3.313A1.106,1.106,0,0,0,76.147,2.209Zm-7.73,0h1.1a.552.552,0,0,0,.552-.552.552.552,0,1,1,1.1,0,.552.552,0,0,0,.552.552h1.1v1.1H68.417Zm7.73,14.356H65.1V3.313h2.209v.552a.552.552,0,0,0,.552.552h5.521a.552.552,0,0,0,.552-.552V3.313h2.209Z" transform="translate(-64)" fill="#fff"/>
      </g>
    </g>
  </g>
</symbol>

<!-- <symbol id="ic_dashboard" xmlns="http://www.w3.org/2000/svg" width="28" height="16" viewBox="0 0 34.573 32.179">
  <g id="ic_dashboard" transform="translate(-168.563 -149.764)">
    <path id="Path_2518" data-name="Path 2518" d="M192.167,163.523c-.145-.059-.219-.318-.305-.495-.418-.865-.823-1.736-1.243-2.6-.281-.577-.614-1.094-1.371-1.077a1.511,1.511,0,0,0-1.391,1.063q-1.062,2.356-2.128,4.712c-.346.76-.706,1.513-1.059,2.27l-.267-.02c-.161-.352-.328-.7-.482-1.056-.642-1.476-1.258-2.964-1.926-4.428a1.346,1.346,0,0,0-2.383-.426,18.188,18.188,0,0,0-2.047,2.147,2.228,2.228,0,0,1-1.206.834,1.413,1.413,0,0,0-1.054,1.344v.063a1.39,1.39,0,0,0,1.312,1.38l.106.008a2.267,2.267,0,0,0,2.064-.928c.4-.5.826-.981,1.369-1.624.345.715.564,1.131.751,1.561q1.114,2.565,2.208,5.139c.252.6.679,1.134,1.3,1.016a2.345,2.345,0,0,0,1.448-.95,34.237,34.237,0,0,0,1.565-3.38l1.8-4.006c.379.733.67,1.406.94,1.913.2.381.8.54,1.468.6a1.5,1.5,0,0,0,1.616-1.489v-.131a1.569,1.569,0,0,0-1.077-1.432Z" fill="#fff"/>
    <circle id="Ellipse_7" data-name="Ellipse 7" cx="1.548" cy="1.548" r="1.548" transform="translate(194.039 163.653)" fill="#fff"/>
    <g id="Group_2071" data-name="Group 2071">
      <path id="Path_2519" data-name="Path 2519" d="M194.827,181.943H176.872a8.319,8.319,0,0,1-8.309-8.31v-15.56a8.318,8.318,0,0,1,8.309-8.309h17.955a8.318,8.318,0,0,1,8.309,8.309v15.56A8.319,8.319,0,0,1,194.827,181.943Zm-17.955-29.287a5.423,5.423,0,0,0-5.417,5.417v15.56a5.423,5.423,0,0,0,5.417,5.417h17.955a5.423,5.423,0,0,0,5.417-5.417v-15.56a5.423,5.423,0,0,0-5.417-5.417Z" fill="#fff"/>
    </g>
  </g>
</symbol> -->


<!-- <symbol id="ic_inbound" xmlns="http://www.w3.org/2000/svg" width="28" height="16" viewBox="0 0 37.324 39.543">
  <g id="ic_inbound" transform="translate(-166.013 -649.424)">
    <g id="Group_2095" data-name="Group 2095">
      <g id="Group_2091" data-name="Group 2091">
        <path id="Path_2540" data-name="Path 2540" d="M173.725,688.967a2.97,2.97,0,1,0-2.928-3A2.958,2.958,0,0,0,173.725,688.967Z" fill="#fff"/>
      </g>
      <g id="Group_2092" data-name="Group 2092">
        <path id="Path_2541" data-name="Path 2541" d="M173.57,681.33a1.235,1.235,0,0,1-1.235-1.236V651.9h-5.086a1.236,1.236,0,1,1,0-2.471h6.321a1.235,1.235,0,0,1,1.236,1.235v29.435A1.236,1.236,0,0,1,173.57,681.33Z" fill="#fff"/>
      </g>
      <g id="Group_2093" data-name="Group 2093">
        <path id="Path_2542" data-name="Path 2542" d="M202.1,687.033H179.262a1.236,1.236,0,1,1,0-2.471H202.1a1.236,1.236,0,1,1,0,2.471Z" fill="#fff"/>
      </g>
      <g id="Group_2094" data-name="Group 2094">
        <path id="Path_2543" data-name="Path 2543" d="M197.49,681.877H182.612a5.074,5.074,0,0,1-5.068-5.068V665.151a5.074,5.074,0,0,1,5.068-5.068H197.49a5.074,5.074,0,0,1,5.068,5.068v11.658A5.074,5.074,0,0,1,197.49,681.877Zm-14.878-19.322a2.6,2.6,0,0,0-2.6,2.6v11.658a2.6,2.6,0,0,0,2.6,2.6H197.49a2.6,2.6,0,0,0,2.6-2.6V665.151a2.6,2.6,0,0,0-2.6-2.6Z" fill="#fff"/>
      </g>
    </g>
  </g>
</symbol> -->

<symbol id="ic_inbound_black" xmlns="http://www.w3.org/2000/svg" width="36" height="24" viewBox="0 0 37.324 39.543">
  <g id="ic_inbound_black" transform="translate(-166.013 -649.424)">
    <g id="Group_2095" data-name="Group 2095">
      <g id="Group_2091" data-name="Group 2091">
        <path id="Path_2540" data-name="Path 2540" d="M173.725,688.967a2.97,2.97,0,1,0-2.928-3A2.958,2.958,0,0,0,173.725,688.967Z" fill="#57657a"/>
      </g>
      <g id="Group_2092" data-name="Group 2092">
        <path id="Path_2541" data-name="Path 2541" d="M173.57,681.33a1.235,1.235,0,0,1-1.235-1.236V651.9h-5.086a1.236,1.236,0,1,1,0-2.471h6.321a1.235,1.235,0,0,1,1.236,1.235v29.435A1.236,1.236,0,0,1,173.57,681.33Z" fill="#57657a"/>
      </g>
      <g id="Group_2093" data-name="Group 2093">
        <path id="Path_2542" data-name="Path 2542" d="M202.1,687.033H179.262a1.236,1.236,0,1,1,0-2.471H202.1a1.236,1.236,0,1,1,0,2.471Z" fill="#57657a"/>
      </g>
      <g id="Group_2094" data-name="Group 2094">
        <path id="Path_2543" data-name="Path 2543" d="M197.49,681.877H182.612a5.074,5.074,0,0,1-5.068-5.068V665.151a5.074,5.074,0,0,1,5.068-5.068H197.49a5.074,5.074,0,0,1,5.068,5.068v11.658A5.074,5.074,0,0,1,197.49,681.877Zm-14.878-19.322a2.6,2.6,0,0,0-2.6,2.6v11.658a2.6,2.6,0,0,0,2.6,2.6H197.49a2.6,2.6,0,0,0,2.6-2.6V665.151a2.6,2.6,0,0,0-2.6-2.6Z" fill="#57657a"/>
      </g>
    </g>
  </g>
</symbol>


<symbol id="ic_logout" width="28" height="18"  viewBox="0 0 23.071 21.053">
  <g  transform="translate(0 -22.397)">
    <g id="Group_16" data-name="Group 16" transform="translate(6.723 30.506)">
      <g id="Group_15" data-name="Group 15" transform="translate(0 0)">
        <path id="Path_2420" data-name="Path 2420" d="M165.258,204.223l-2.469-1.74a.677.677,0,0,0-1.065.552V204.1H149.871a.676.676,0,1,0,0,1.352h11.853v1.064a.677.677,0,0,0,1.065.552l2.469-1.74A.677.677,0,0,0,165.258,204.223Z" transform="translate(-149.195 -202.358)" fill="#919ba8"/>
      </g>
    </g>
    <g id="Group_18" data-name="Group 18" transform="translate(0 22.397)">
      <g id="Group_17" data-name="Group 17" transform="translate(0 0)">
        <path id="Path_2421" data-name="Path 2421" d="M19.4,37.263a.676.676,0,0,0-.924.247,9.174,9.174,0,1,1,0-9.174.676.676,0,0,0,1.17-.677,10.526,10.526,0,1,0,0,10.527A.676.676,0,0,0,19.4,37.263Z" transform="translate(0 -22.397)" fill="#919ba8"/>
      </g>
    </g>
  </g>
</symbol>


<symbol id="ic_order" width="28" height="16"  viewBox="0 0 15.169 13.332">
  <g  transform="translate(0 -31)">
    <path id="Path_2502" data-name="Path 2502" d="M15.169,31H0v4.444H.918v8.888H14.251V35.444h.918ZM13.362,43.443H1.807v-8H13.362Zm.918-8.888H.889V31.889H14.28Z" fill="#fff"/>
    <path id="Path_2503" data-name="Path 2503" d="M152.333,213.666h3.555a1.333,1.333,0,0,0,0-2.666h-3.555a1.333,1.333,0,0,0,0,2.666Zm0-1.778h3.555a.444.444,0,0,1,0,.889h-3.555a.444.444,0,0,1,0-.889Z" transform="translate(-146.526 -174.667)" fill="#fff"/>
  </g>
</symbol>


<symbol id="ic_stack" width="28" height="16"  viewBox="0 0 14.702 16.597">
  <g data-name="ic_stack" transform="translate(-22.071 0)">
    <g id="Group_72" data-name="Group 72" transform="translate(22.071 0)">
      <g id="Group_71" data-name="Group 71" transform="translate(0 0)">
        <path id="Path_2514" data-name="Path 2514" d="M36.144,3.631,30.944.392a3.145,3.145,0,0,0-3.043,0L22.7,3.631a1.028,1.028,0,0,0,0,1.9l5.2,3.239a3.145,3.145,0,0,0,3.043,0l5.2-3.239A1.028,1.028,0,0,0,36.144,3.631ZM30.207,7.241a1.58,1.58,0,0,1-1.551,0L24.467,4.582l4.189-2.65a1.585,1.585,0,0,1,1.551,0L34.4,4.582Z" transform="translate(-22.072 0)" fill="#fff"/>
      </g>
    </g>
    <g id="Group_74" data-name="Group 74" transform="translate(22.071 7.326)">
      <g id="Group_73" data-name="Group 73" transform="translate(0)">
        <path id="Path_2515" data-name="Path 2515" d="M36.143,170.747l-.108-.068-5.464,3.447h0l-.362.23a1.58,1.58,0,0,1-1.551,0L24.466,171.7h0l-1.637-1.031-.129.081a1.028,1.028,0,0,0,0,1.9l5.2,3.239a3.145,3.145,0,0,0,3.043,0l5.2-3.239A1.028,1.028,0,0,0,36.143,170.747Z" transform="translate(-22.071 -170.666)" fill="#fff"/>
      </g>
    </g>
    <g id="Group_76" data-name="Group 76" transform="translate(22.071 10.99)">
      <g id="Group_75" data-name="Group 75">
        <path id="Path_2516" data-name="Path 2516" d="M36.144,256.081l-.108-.068-5.464,3.447h0l-.362.23a1.58,1.58,0,0,1-1.551,0l-4.189-2.658h0L22.831,256l-.129.081a1.028,1.028,0,0,0,0,1.9l5.2,3.239a3.145,3.145,0,0,0,3.043,0l5.2-3.239A1.028,1.028,0,0,0,36.144,256.081Z" transform="translate(-22.072 -256)" fill="#fff"/>
      </g>
    </g>
  </g>
</symbol>


<symbol id="ic_manufacturing" xmlns="http://www.w3.org/2000/svg" width="20" height="18"  viewBox="0 0 47.684 32.972">
  <g id="ic_manufacturing" transform="translate(-165.71 -869.953)">
    <g id="Group_2110" data-name="Group 2110">
      <path id="Path_2552" data-name="Path 2552" d="M202.207,896.205a3.36,3.36,0,1,1-3.36,3.359A3.364,3.364,0,0,1,202.207,896.205Z" fill="#fff"/>
      <path id="Path_2553" data-name="Path 2553" d="M170.969,899.045h-1.733a.45.45,0,0,1-.451-.45v-9.2a1.55,1.55,0,0,0-1.333-1.568,1.49,1.49,0,0,0-1.645,1.48v9.289a3.429,3.429,0,0,0,3.429,3.428h1.733a1.489,1.489,0,0,0,1.489-1.489h0A1.489,1.489,0,0,0,170.969,899.045Z" fill="#fff"/>
      <path id="Path_2554" data-name="Path 2554" d="M212.958,883.966l-9.7-9.7a1.49,1.49,0,0,0-1.053-.436H194v-2.39a1.489,1.489,0,0,0-1.489-1.489h-22.3a4.4,4.4,0,0,0-4.4,4.4v4.459a1.55,1.55,0,0,0,1.333,1.568,1.49,1.49,0,0,0,1.645-1.48v-4.547a1.42,1.42,0,0,1,1.42-1.42h20.816v26.114h-8.106a1.489,1.489,0,0,0-1.489,1.489h0a1.489,1.489,0,0,0,1.489,1.489h12.866a1.488,1.488,0,0,0,1.489-1.489h0a1.489,1.489,0,0,0-1.489-1.489H194V876.809h7.592l8.825,8.826v11.99a1.42,1.42,0,0,1-1.42,1.42h-.611a1.489,1.489,0,0,0-1.489,1.489h0a1.489,1.489,0,0,0,1.489,1.489H209a4.4,4.4,0,0,0,4.4-4.4V885.018A1.489,1.489,0,0,0,212.958,883.966Z" fill="#fff"/>
      <path id="Path_2555" data-name="Path 2555" d="M176.994,902.925a3.36,3.36,0,1,1,3.36-3.361A3.364,3.364,0,0,1,176.994,902.925Z" fill="#fff"/>
      <g id="Group_2109" data-name="Group 2109">
        <g id="Group_2107" data-name="Group 2107">
          <path id="Path_2556" data-name="Path 2556" d="M179.909,885.489H167.215a1.5,1.5,0,1,1,0-3.008h12.694a1.5,1.5,0,1,1,0,3.008Z" fill="#fff"/>
        </g>
        <g id="Group_2108" data-name="Group 2108">
          <path id="Path_2557" data-name="Path 2557" d="M181.533,890.894a1.5,1.5,0,0,1-.95-.338,1.576,1.576,0,0,1-.068-2.279l3.237-3.418a1.425,1.425,0,0,0,.009-1.951l-3.27-3.516a1.565,1.565,0,0,1-.09-2.079,1.5,1.5,0,0,1,2.234-.033l5.2,5.593a1.5,1.5,0,0,1-.01,2.059l-5.2,5.492A1.5,1.5,0,0,1,181.533,890.894Z" fill="#fff"/>
        </g>
      </g>
    </g>
  </g>
</symbol>


<symbol id="ic_putaway" xmlns="http://www.w3.org/2000/svg" width="28" height="16"  viewBox="0 0 37.028 30.515">
  <g id="ic_putaway" transform="translate(-168.859 -437.078)">
    <g id="Group_2080" data-name="Group 2080">
      <g id="Group_2076" data-name="Group 2076">
        <path id="Path_2526" data-name="Path 2526" d="M184.334,467.592a15.258,15.258,0,1,1,11.836-24.613A1.562,1.562,0,1,1,193.7,444.9a12.134,12.134,0,1,0-.034,14.921,1.563,1.563,0,0,1,2.459,1.929A15.2,15.2,0,0,1,184.334,467.592Z" fill="#fff"/>
      </g>
      <g id="Group_2079" data-name="Group 2079">
        <g id="Group_2077" data-name="Group 2077">
          <path id="Path_2527" data-name="Path 2527" d="M195.941,454.268H182.754a1.563,1.563,0,1,1,0-3.125h13.187a1.563,1.563,0,1,1,0,3.125Z" fill="#fff"/>
        </g>
        <g id="Group_2078" data-name="Group 2078">
          <path id="Path_2528" data-name="Path 2528" d="M198.921,459.951a1.553,1.553,0,0,1-.987-.351,1.637,1.637,0,0,1-.07-2.368l3.362-3.55a1.48,1.48,0,0,0,.009-2.026l-3.4-3.653a1.625,1.625,0,0,1-.093-2.159,1.561,1.561,0,0,1,2.32-.036l5.4,5.811a1.564,1.564,0,0,1-.01,2.139l-5.4,5.705A1.558,1.558,0,0,1,198.921,459.951Z" fill="#fff"/>
        </g>
      </g>
    </g>
  </g>
</symbol>


<!-- <symbol id="ic_products" xmlns="http://www.w3.org/2000/svg" width="28" height="16"  viewBox="0 0 49.945 32.21">
  <g id="ic_products" transform="translate(-162.34 -514.5)">
    <g id="Group_2084" data-name="Group 2084">
      <g id="Group_2082" data-name="Group 2082">
        <path id="Path_2529" data-name="Path 2529" d="M211.079,519.931l-7.45,3.57a2.2,2.2,0,0,1-.6.19,6.568,6.568,0,0,0-3.41-4.64l-2.22-1.17,3.78-1.83a2.977,2.977,0,0,1,2.68.05l7.06,3.73A.863.863,0,0,1,211.079,519.931Z" fill="#fff"/>
        <path id="Path_2530" data-name="Path 2530" d="M200.93,525.25v11.732l.47.243c.054.027.11.049.166.071l.051-11.816A4.293,4.293,0,0,1,200.93,525.25Z" fill="#fff"/>
        <path id="Path_2531" data-name="Path 2531" d="M212.285,531.383a2.258,2.258,0,0,1-1.255,2.031l-7.608,3.8.05-11.721a4.365,4.365,0,0,0,.957-.322l7.771-3.726a2.574,2.574,0,0,1,.085.647Z" fill="#fff"/>
      </g>
      <g id="Group_2083" data-name="Group 2083">
        <path id="Path_2532" data-name="Path 2532" d="M176.7,517.861l-1.2.58a6.614,6.614,0,0,0-3.69,5.28,2.359,2.359,0,0,1-.77-.23l-7.36-4.04c.04-.02.07-.04.11-.06l6.9-3.34a2.976,2.976,0,0,1,2.68.05Z" fill="#fff"/>
        <path id="Path_2533" data-name="Path 2533" d="M163.624,533.454a2.26,2.26,0,0,1-1.255-2.031v-.7a.906.906,0,0,0-.021-.2l-.008-8.808a2.554,2.554,0,0,1,.133-.808l7.707,4.229a4.3,4.3,0,0,0,.951.344l-.05,11.816c-.056-.022-.112-.044-.166-.071Z" fill="#fff"/>
        <path id="Path_2534" data-name="Path 2534" d="M174.761,533.707a7.218,7.218,0,0,1-.526-1.817,20.9,20.9,0,0,1,.242-4.529,12.947,12.947,0,0,1,.54-2.7l-1.073.514a4.365,4.365,0,0,1-.957.322l-.05,11.721,1.184-.592A2.655,2.655,0,0,1,174.761,533.707Z" fill="#fff"/>
      </g>
      <path id="Path_2535" data-name="Path 2535" d="M199.154,519.934l-8.951-4.729a6.147,6.147,0,0,0-5.522-.1l-8.742,4.23a5.637,5.637,0,0,0-3.169,5.076l.011,11.88a1.146,1.146,0,0,0,.026.244v.173a5.194,5.194,0,0,0,2.876,4.67l9.241,4.781a5.259,5.259,0,0,0,4.679,0l9.646-4.823a5.2,5.2,0,0,0,2.891-4.678V524.888A5.589,5.589,0,0,0,199.154,519.934Zm-13.448-2.709a3.776,3.776,0,0,1,3.4.06l8.952,4.728c.072.038.137.085.205.127l-9.442,4.527a3.056,3.056,0,0,1-2.668-.008l-9.333-5.122c.049-.027.094-.059.145-.083Zm-8.956,22.059a2.861,2.861,0,0,1-1.591-2.574v-.893a1.13,1.13,0,0,0-.027-.248l-.01-11.164a3.233,3.233,0,0,1,.168-1.024l9.769,5.361a5.554,5.554,0,0,0,1.206.436l-.064,14.976c-.071-.028-.142-.055-.21-.09Zm23.038-2.624a2.861,2.861,0,0,1-1.591,2.574l-9.643,4.821.063-14.857a5.471,5.471,0,0,0,1.214-.407l9.849-4.723a3.236,3.236,0,0,1,.108.82Z" fill="#fff"/>
    </g>
  </g>
</symbol> -->

<symbol id="ic_products_black" xmlns="http://www.w3.org/2000/svg" width="36" height="24"  viewBox="0 0 49.945 32.21">
  <g id="ic_products_black" transform="translate(-162.34 -514.5)">
    <g id="Group_2084" data-name="Group 2084">
      <g id="Group_2082" data-name="Group 2082">
        <path id="Path_2529" data-name="Path 2529" d="M211.079,519.931l-7.45,3.57a2.2,2.2,0,0,1-.6.19,6.568,6.568,0,0,0-3.41-4.64l-2.22-1.17,3.78-1.83a2.977,2.977,0,0,1,2.68.05l7.06,3.73A.863.863,0,0,1,211.079,519.931Z" fill="#57657a"/>
        <path id="Path_2530" data-name="Path 2530" d="M200.93,525.25v11.732l.47.243c.054.027.11.049.166.071l.051-11.816A4.293,4.293,0,0,1,200.93,525.25Z" fill="#57657a"/>
        <path id="Path_2531" data-name="Path 2531" d="M212.285,531.383a2.258,2.258,0,0,1-1.255,2.031l-7.608,3.8.05-11.721a4.365,4.365,0,0,0,.957-.322l7.771-3.726a2.574,2.574,0,0,1,.085.647Z" fill="#57657a"/>
      </g>
      <g id="Group_2083" data-name="Group 2083">
        <path id="Path_2532" data-name="Path 2532" d="M176.7,517.861l-1.2.58a6.614,6.614,0,0,0-3.69,5.28,2.359,2.359,0,0,1-.77-.23l-7.36-4.04c.04-.02.07-.04.11-.06l6.9-3.34a2.976,2.976,0,0,1,2.68.05Z" fill="#57657a"/>
        <path id="Path_2533" data-name="Path 2533" d="M163.624,533.454a2.26,2.26,0,0,1-1.255-2.031v-.7a.906.906,0,0,0-.021-.2l-.008-8.808a2.554,2.554,0,0,1,.133-.808l7.707,4.229a4.3,4.3,0,0,0,.951.344l-.05,11.816c-.056-.022-.112-.044-.166-.071Z" fill="#57657a"/>
        <path id="Path_2534" data-name="Path 2534" d="M174.761,533.707a7.218,7.218,0,0,1-.526-1.817,20.9,20.9,0,0,1,.242-4.529,12.947,12.947,0,0,1,.54-2.7l-1.073.514a4.365,4.365,0,0,1-.957.322l-.05,11.721,1.184-.592A2.655,2.655,0,0,1,174.761,533.707Z" fill="#57657a"/>
      </g>
      <path id="Path_2535" data-name="Path 2535" d="M199.154,519.934l-8.951-4.729a6.147,6.147,0,0,0-5.522-.1l-8.742,4.23a5.637,5.637,0,0,0-3.169,5.076l.011,11.88a1.146,1.146,0,0,0,.026.244v.173a5.194,5.194,0,0,0,2.876,4.67l9.241,4.781a5.259,5.259,0,0,0,4.679,0l9.646-4.823a5.2,5.2,0,0,0,2.891-4.678V524.888A5.589,5.589,0,0,0,199.154,519.934Zm-13.448-2.709a3.776,3.776,0,0,1,3.4.06l8.952,4.728c.072.038.137.085.205.127l-9.442,4.527a3.056,3.056,0,0,1-2.668-.008l-9.333-5.122c.049-.027.094-.059.145-.083Zm-8.956,22.059a2.861,2.861,0,0,1-1.591-2.574v-.893a1.13,1.13,0,0,0-.027-.248l-.01-11.164a3.233,3.233,0,0,1,.168-1.024l9.769,5.361a5.554,5.554,0,0,0,1.206.436l-.064,14.976c-.071-.028-.142-.055-.21-.09Zm23.038-2.624a2.861,2.861,0,0,1-1.591,2.574l-9.643,4.821.063-14.857a5.471,5.471,0,0,0,1.214-.407l9.849-4.723a3.236,3.236,0,0,1,.108.82Z" fill="#57657a"/>
    </g>
  </g>
</symbol>

<symbol id="ic_po" xmlns="http://www.w3.org/2000/svg" width="28" height="16"  viewBox="0 0 35.84 38.797">
  <g id="ic_porder" transform="translate(-169.25 -289.964)">
    <g id="Group_2073" data-name="Group 2073">
      <path id="Path_2520" data-name="Path 2520" d="M178.362,318.84a1.417,1.417,0,0,1-.91-2.5l2.907-2.433-2.093-3.6a1.417,1.417,0,0,1,2.45-1.423l2.692,4.637a1.418,1.418,0,0,1-.315,1.8l-3.822,3.2A1.413,1.413,0,0,1,178.362,318.84Z" fill="#fff"/>
    </g>
    <g id="Group_2074" data-name="Group 2074">
      <path id="Path_2521" data-name="Path 2521" d="M180.1,315.2a1.418,1.418,0,0,1-.559-.116l-9.434-4.062a1.416,1.416,0,1,1,1.12-2.6l9.434,4.062a1.417,1.417,0,0,1-.561,2.718Z" fill="#fff"/>
    </g>
    <path id="Path_2522" data-name="Path 2522" d="M201.494,296.509l-10.782-5.7a7.4,7.4,0,0,0-6.65-.118l-10.531,5.094a6.793,6.793,0,0,0-3.816,6.12l.013,2.393a1.416,1.416,0,0,0,1.416,1.408h.008a1.416,1.416,0,0,0,1.409-1.424l-.013-2.392a3.9,3.9,0,0,1,.2-1.233l11.767,6.456a6.622,6.622,0,0,0,1.452.526l-.077,18.037c-.091-.036-.182-.071-.271-.116l-11.4-5.7a3.447,3.447,0,0,1-1.917-3.1v-1.075a1.416,1.416,0,1,0-2.833,0v1.075a6.266,6.266,0,0,0,3.483,5.635l11.4,5.7a6.335,6.335,0,0,0,5.635,0l11.619-5.81a6.265,6.265,0,0,0,3.482-5.635V302.476A6.733,6.733,0,0,0,201.494,296.509Zm-26.9,1.931c.059-.032.113-.07.173-.1l10.532-5.094a4.549,4.549,0,0,1,4.093.073l10.782,5.7c.087.046.165.1.247.153l-11.373,5.453a3.677,3.677,0,0,1-3.213-.01Zm27.667,18.215a3.448,3.448,0,0,1-1.917,3.1l-11.615,5.808.076-17.895a6.661,6.661,0,0,0,1.462-.492l11.864-5.688a3.946,3.946,0,0,1,.13.987Z" fill="#fff"/>
  </g>
</symbol>

<symbol id="ic_po_black" xmlns="http://www.w3.org/2000/svg" width="36" height="24"  viewBox="0 0 35.84 38.797">
  <g id="ic_porder" transform="translate(-169.25 -289.964)">
    <g id="Group_2073" data-name="Group 2073">
      <path id="Path_2520" data-name="Path 2520" d="M178.362,318.84a1.417,1.417,0,0,1-.91-2.5l2.907-2.433-2.093-3.6a1.417,1.417,0,0,1,2.45-1.423l2.692,4.637a1.418,1.418,0,0,1-.315,1.8l-3.822,3.2A1.413,1.413,0,0,1,178.362,318.84Z" fill="#57657a"/>
    </g>
    <g id="Group_2074" data-name="Group 2074">
      <path id="Path_2521" data-name="Path 2521" d="M180.1,315.2a1.418,1.418,0,0,1-.559-.116l-9.434-4.062a1.416,1.416,0,1,1,1.12-2.6l9.434,4.062a1.417,1.417,0,0,1-.561,2.718Z" fill="#57657a"/>
    </g>
    <path id="Path_2522" data-name="Path 2522" d="M201.494,296.509l-10.782-5.7a7.4,7.4,0,0,0-6.65-.118l-10.531,5.094a6.793,6.793,0,0,0-3.816,6.12l.013,2.393a1.416,1.416,0,0,0,1.416,1.408h.008a1.416,1.416,0,0,0,1.409-1.424l-.013-2.392a3.9,3.9,0,0,1,.2-1.233l11.767,6.456a6.622,6.622,0,0,0,1.452.526l-.077,18.037c-.091-.036-.182-.071-.271-.116l-11.4-5.7a3.447,3.447,0,0,1-1.917-3.1v-1.075a1.416,1.416,0,1,0-2.833,0v1.075a6.266,6.266,0,0,0,3.483,5.635l11.4,5.7a6.335,6.335,0,0,0,5.635,0l11.619-5.81a6.265,6.265,0,0,0,3.482-5.635V302.476A6.733,6.733,0,0,0,201.494,296.509Zm-26.9,1.931c.059-.032.113-.07.173-.1l10.532-5.094a4.549,4.549,0,0,1,4.093.073l10.782,5.7c.087.046.165.1.247.153l-11.373,5.453a3.677,3.677,0,0,1-3.213-.01Zm27.667,18.215a3.448,3.448,0,0,1-1.917,3.1l-11.615,5.808.076-17.895a6.661,6.661,0,0,0,1.462-.492l11.864-5.688a3.946,3.946,0,0,1,.13.987Z" fill="#57657a"/>
  </g>
</symbol>


<symbol id="ic_picklist" xmlns="http://www.w3.org/2000/svg" width="28" height="16"  viewBox="0 0 34.364 38.678">
  <g id="ic_picklist" transform="translate(-168.793 -719.775)">
    <g id="Group_2097" data-name="Group 2097">
      <path id="Path_2544" data-name="Path 2544" d="M191.353,719.775H174.339a5.547,5.547,0,0,0-5.546,5.54v22.13a5.547,5.547,0,0,0,5.546,5.546h17.014a5.546,5.546,0,0,0,5.539-5.546v-22.13A5.545,5.545,0,0,0,191.353,719.775Zm2.854,27.67a2.857,2.857,0,0,1-2.854,2.86H174.339a2.862,2.862,0,0,1-2.86-2.86v-22.13a2.861,2.861,0,0,1,2.86-2.854h17.014a2.856,2.856,0,0,1,2.854,2.854Z" fill="#fff"/>
    </g>
    <g id="Group_2098" data-name="Group 2098">
      <path id="Path_2545" data-name="Path 2545" d="M197.618,725.237h-1.979v2.686h1.979a2.856,2.856,0,0,1,2.854,2.854v22.13a2.857,2.857,0,0,1-2.854,2.86H180.6a2.862,2.862,0,0,1-2.86-2.86v-1.442h-2.686v1.442a5.547,5.547,0,0,0,5.546,5.546h17.014a5.546,5.546,0,0,0,5.539-5.546v-22.13A5.545,5.545,0,0,0,197.618,725.237Z" fill="#fff"/>
    </g>
    <g id="Group_2102" data-name="Group 2102">
      <g id="Group_2099" data-name="Group 2099">
        <path id="Path_2546" data-name="Path 2546" d="M190.129,730.3H175.557a1.343,1.343,0,1,1,0-2.686h14.572a1.343,1.343,0,0,1,0,2.686Z" fill="#fff"/>
      </g>
      <g id="Group_2100" data-name="Group 2100">
        <path id="Path_2547" data-name="Path 2547" d="M190.129,737.9H175.557a1.343,1.343,0,1,1,0-2.686h14.572a1.343,1.343,0,0,1,0,2.686Z" fill="#fff"/>
      </g>
      <g id="Group_2101" data-name="Group 2101">
        <path id="Path_2548" data-name="Path 2548" d="M190.129,745.493H175.557a1.342,1.342,0,1,1,0-2.685h14.572a1.342,1.342,0,0,1,0,2.685Z" fill="#fff"/>
      </g>
    </g>
  </g>
</symbol>

<symbol id="ic_packing" xmlns="http://www.w3.org/2000/svg" width="28" height="16"  viewBox="0 0 35.963 39.44">
  <g id="ic_packing" transform="translate(-168.308 -794.813)">
    <g id="Group_2104" data-name="Group 2104">
      <path id="Path_2549" data-name="Path 2549" d="M196.409,807.736v5.932a1.44,1.44,0,0,1-2.88,0v-4.147a1.427,1.427,0,0,0-.807-1.289l-.784-.424-13.075-7.1-3.118-1.692,3.2-1.548,3.132,1.685,13.147,7.077.381.209A1.445,1.445,0,0,1,196.409,807.736Z" fill="#fff"/>
    </g>
    <path id="Path_2550" data-name="Path 2550" d="M196.409,807.736v5.932a1.44,1.44,0,0,1-2.88,0v-4.147a1.427,1.427,0,0,0-.807-1.289l-.784-.424-13.075-7.1-3.118-1.692,3.2-1.548,3.132,1.685,13.147,7.077.381.209A1.445,1.445,0,0,1,196.409,807.736Z" fill="#fff"/>
    <g id="Group_2105" data-name="Group 2105">
      <path id="Path_2551" data-name="Path 2551" d="M200.613,801.465l-10.958-5.789a7.518,7.518,0,0,0-6.768-.115l-2.555,1.217,3.131,1.686.684-.311a4.607,4.607,0,0,1,4.162.072l10.958,5.788c.086.051.165.1.252.159l-3.244,1.523.156.084a1.787,1.787,0,0,1,.993,1.611v.951l3.83-1.808a3.837,3.837,0,0,1,.137,1v14.414a3.512,3.512,0,0,1-1.951,3.154l-11.808,5.9.079-18.193a7.05,7.05,0,0,0,1.483-.5l3.351-1.625V809.8a1.071,1.071,0,0,0-.6-.963l-1.029-.559-2.958,1.434a3.748,3.748,0,0,1-3.269-.015l-11.426-6.271c.058-.029.115-.072.18-.1l4.217-1.921-3.117-1.692-2.352,1.021a6.887,6.887,0,0,0-3.881,6.214l.014,14.551a1.3,1.3,0,0,0,.029.295v.216a6.352,6.352,0,0,0,3.521,5.717l11.318,5.853a6.448,6.448,0,0,0,5.724,0l11.814-5.9a6.382,6.382,0,0,0,3.543-5.731V807.534A6.859,6.859,0,0,0,200.613,801.465Zm-15.861,29.663c-.086-.036-.173-.072-.259-.115l-11.318-5.854a3.5,3.5,0,0,1-1.944-3.146v-1.094a1.382,1.382,0,0,0-.036-.3l-.007-13.672a3.834,3.834,0,0,1,.2-1.253l11.966,6.559a6.6,6.6,0,0,0,1.476.54Z" fill="#fff"/>
    </g>
  </g>
</symbol>


<symbol id="ic_so" xmlns="http://www.w3.org/2000/svg" width="28" height="16"  viewBox="0 0 34.999 38.384">
  <g id="ic_order" transform="translate(-168.792 -220.312)">
    <path id="Path_2558" data-name="Path 2558" d="M200.233,226.787l-10.667-5.635a7.32,7.32,0,0,0-6.58-.116l-10.419,5.04a6.714,6.714,0,0,0-3.775,6.049l.012,14.158a1.385,1.385,0,0,0,.031.29v.206a6.191,6.191,0,0,0,3.428,5.566l11.012,5.7a6.267,6.267,0,0,0,5.575,0l11.5-5.748a6.2,6.2,0,0,0,3.445-5.575V232.691A6.659,6.659,0,0,0,200.233,226.787Zm-16.026-3.228a4.5,4.5,0,0,1,4.05.071l10.667,5.635c.086.046.163.1.244.151l-11.251,5.4a3.639,3.639,0,0,1-3.18-.01l-11.121-6.1c.058-.032.111-.07.172-.1Zm-10.673,26.287a3.408,3.408,0,0,1-1.9-3.067v-1.064a1.368,1.368,0,0,0-.032-.295l-.012-13.3a3.842,3.842,0,0,1,.2-1.22l11.642,6.387a6.552,6.552,0,0,0,1.437.52l-.076,17.848c-.084-.034-.169-.067-.251-.108Zm27.454-3.127a3.41,3.41,0,0,1-1.9,3.068L187.6,255.533l.076-17.705a6.565,6.565,0,0,0,1.446-.486l11.737-5.628a3.861,3.861,0,0,1,.129.977Z" fill="#fff"/>
    <g id="Group_2112" data-name="Group 2112">
      <path id="Path_2559" data-name="Path 2559" d="M192.792,242.979a1.4,1.4,0,0,1-.621-2.658l4.421-2.152a1.4,1.4,0,0,1,1.24,2.514l-4.421,2.151A1.384,1.384,0,0,1,192.792,242.979Z" fill="#fff"/>
    </g>
    <g id="Group_2113" data-name="Group 2113">
      <path id="Path_2560" data-name="Path 2560" d="M179.919,242.678a1.4,1.4,0,0,0,.621-2.658l-4.421-2.39a1.4,1.4,0,1,0-1.24,2.513l4.421,2.39A1.384,1.384,0,0,0,179.919,242.678Z" fill="#fff"/>
    </g>
  </g>
</symbol>

<symbol id="ic_so_black" xmlns="http://www.w3.org/2000/svg" width="36" height="24"  viewBox="0 0 34.999 38.384">
  <g id="ic_order" transform="translate(-168.792 -220.312)">
    <path id="Path_2558" data-name="Path 2558" d="M200.233,226.787l-10.667-5.635a7.32,7.32,0,0,0-6.58-.116l-10.419,5.04a6.714,6.714,0,0,0-3.775,6.049l.012,14.158a1.385,1.385,0,0,0,.031.29v.206a6.191,6.191,0,0,0,3.428,5.566l11.012,5.7a6.267,6.267,0,0,0,5.575,0l11.5-5.748a6.2,6.2,0,0,0,3.445-5.575V232.691A6.659,6.659,0,0,0,200.233,226.787Zm-16.026-3.228a4.5,4.5,0,0,1,4.05.071l10.667,5.635c.086.046.163.1.244.151l-11.251,5.4a3.639,3.639,0,0,1-3.18-.01l-11.121-6.1c.058-.032.111-.07.172-.1Zm-10.673,26.287a3.408,3.408,0,0,1-1.9-3.067v-1.064a1.368,1.368,0,0,0-.032-.295l-.012-13.3a3.842,3.842,0,0,1,.2-1.22l11.642,6.387a6.552,6.552,0,0,0,1.437.52l-.076,17.848c-.084-.034-.169-.067-.251-.108Zm27.454-3.127a3.41,3.41,0,0,1-1.9,3.068L187.6,255.533l.076-17.705a6.565,6.565,0,0,0,1.446-.486l11.737-5.628a3.861,3.861,0,0,1,.129.977Z" fill="#57657a"/>
    <g id="Group_2112" data-name="Group 2112">
      <path id="Path_2559" data-name="Path 2559" d="M192.792,242.979a1.4,1.4,0,0,1-.621-2.658l4.421-2.152a1.4,1.4,0,0,1,1.24,2.514l-4.421,2.151A1.384,1.384,0,0,1,192.792,242.979Z" fill="#57657a"/>
    </g>
    <g id="Group_2113" data-name="Group 2113">
      <path id="Path_2560" data-name="Path 2560" d="M179.919,242.678a1.4,1.4,0,0,0,.621-2.658l-4.421-2.39a1.4,1.4,0,1,0-1.24,2.513l4.421,2.39A1.384,1.384,0,0,0,179.919,242.678Z" fill="#57657a"/>
    </g>
  </g>
</symbol>

<symbol id="ic_inventory" xmlns="http://www.w3.org/2000/svg" width="28" height="16"  viewBox="10 0 36.129 38.61">
  <g id="ic_iventory" transform="translate(-168.869 -582.341)">
    <g id="Group_2088" data-name="Group 2088">
      <g id="Group_2086" data-name="Group 2086">
        <path id="Path_2536" data-name="Path 2536" d="M191.329,582.341h-16.94a5.522,5.522,0,0,0-5.52,5.51v22.04a5.531,5.531,0,0,0,5.52,5.52h16.94a5.531,5.531,0,0,0,5.52-5.52v-11.21l-2.68,1.53v9.68a2.838,2.838,0,0,1-2.84,2.84h-16.94a2.838,2.838,0,0,1-2.84-2.84v-22.04a2.845,2.845,0,0,1,2.84-2.84h16.94a2.845,2.845,0,0,1,2.84,2.84v6.52l2.68-1.61v-4.91A5.522,5.522,0,0,0,191.329,582.341Z" fill="#fff"/>
      </g>
      <g id="Group_2087" data-name="Group 2087">
        <path id="Path_2537" data-name="Path 2537" d="M195.119,590.561v-2.67h2.6a5.515,5.515,0,0,1,4.12,1.85l-2.36,1.43a2.844,2.844,0,0,0-1.76-.61Z" fill="#fff"/>
        <path id="Path_2538" data-name="Path 2538" d="M203.239,595.041v20.39a5.525,5.525,0,0,1-5.52,5.52h-16.94a5.525,5.525,0,0,1-5.52-5.52v-1.75h2.68v1.75a2.847,2.847,0,0,0,2.84,2.85h16.94a2.847,2.847,0,0,0,2.84-2.85v-18.86Z" fill="#fff"/>
      </g>
    </g>
    <g id="Group_2089" data-name="Group 2089">
      <path id="Path_2539" data-name="Path 2539" d="M181.7,606.317a1.337,1.337,0,0,1-1.233-.818l-3.694-8.774a1.337,1.337,0,1,1,2.464-1.038l3.1,7.354,20.645-12.387a1.337,1.337,0,0,1,1.376,2.293l-21.967,13.179A1.336,1.336,0,0,1,181.7,606.317Z" fill="#fff"/>
    </g>
  </g>
</symbol>

<symbol id="ic_customer" xmlns="http://www.w3.org/2000/svg" width="28" height="16"  viewBox="0 0 44.48 28.86">
  <g id="ic_customer" transform="translate(-5081.259 -649.797)">
    <path id="Path_2523" data-name="Path 2523" d="M202.929,377.041v.97a5.032,5.032,0,0,1-4.7,5.02,14.153,14.153,0,0,0-3.51-3.61,8.985,8.985,0,0,0,.83-3.79v-.97a8.474,8.474,0,0,0-.22-1.96,4.929,4.929,0,0,1,2.55-.7h.01A5.044,5.044,0,0,1,202.929,377.041Z" transform="translate(4917.66 283.236)" fill="#fff"/>
    <path id="Path_2524" data-name="Path 2524" d="M178.169,379.421a14.535,14.535,0,0,0-3.47,3.53,4.434,4.434,0,0,1-.97.1,5.047,5.047,0,0,1-5.05-5.04v-.97a5.038,5.038,0,0,1,8.73-3.43,7.215,7.215,0,0,0-.07,1.05v.97A8.985,8.985,0,0,0,178.169,379.421Z" transform="translate(4917.66 283.236)" fill="#fff"/>
    <path id="Path_2525" data-name="Path 2525" d="M172.219,394.4a2.031,2.031,0,0,0,.28,1.02h-8.9v-1.63a10.118,10.118,0,0,1,4.81-8.63c1.51-1.15,3.91-1.4,5.78-1.41a14.236,14.236,0,0,0-1.97,7.23Z" transform="translate(4917.66 283.236)" fill="#fff"/>
    <path id="Path_2561" data-name="Path 2561" d="M173.843,395.4a1.183,1.183,0,0,1-.62-1.012v-3.407a13.179,13.179,0,0,1,5.866-10.974l.373-.249-.207-.4a7.989,7.989,0,0,1-.915-3.732v-.962a8.1,8.1,0,0,1,16.208,0v.962a8,8,0,0,1-.915,3.733l-.207.4.373.249a13.179,13.179,0,0,1,5.867,10.974v3.412c0,.845-.166.971-.373,1.007Zm6.984-13.468a10.594,10.594,0,0,0-5.045,9.049v2.132h21.324v-2.132a10.593,10.593,0,0,0-5.046-9.049l-.3-.186-.276.22a8.076,8.076,0,0,1-10.082,0l-.276-.219Zm5.617-12.809a5.55,5.55,0,0,0-5.544,5.543v.962a5.544,5.544,0,0,0,11.088,0v-.962A5.55,5.55,0,0,0,186.444,369.121Z" transform="translate(4917.66 283.236)" fill="#fff"/>
    <path id="Path_2562" data-name="Path 2562" d="M208.079,393.791v1.63h-7.54a3.235,3.235,0,0,0,.13-1.03v-3.41a14.1,14.1,0,0,0-2.22-7.6,9.328,9.328,0,0,1,4.82,1.78A10.118,10.118,0,0,1,208.079,393.791Z" transform="translate(4917.66 283.236)" fill="#fff"/>
  </g>
</symbol>

<symbol id="ic_dashboard" xmlns="http://www.w3.org/2000/svg" width="28" height="16" viewBox="9 0 5 16">
  <g id="ic_dashboard" transform="translate(-1 -1)">
      <path id="prefix__Path_2422" d="M7.328 15.5H1.7a.7.7 0 0 0-.7.7V23a.705.705 0 0 0 .7.7h5.628a.705.705 0 0 0 .7-.7v-6.8a.7.7 0 0 0-.7-.7z" class="prefix__cls-1" data-name="Path 2422" transform="translate(0 -7.703)"/>
      <path id="prefix__Path_2423" d="M24.328 1H18.7a.7.7 0 0 0-.7.7v6.8a.705.705 0 0 0 .7.7h5.625a.705.705 0 0 0 .7-.7V1.7a.7.7 0 0 0-.697-.7z" class="prefix__cls-1" data-name="Path 2423" transform="translate(-9.031)"/>
      <path id="prefix__Path_2424" d="M24.328 20.5H18.7a.7.7 0 0 0-.7.7v4.453a.705.705 0 0 0 .7.7h5.625a.705.705 0 0 0 .7-.7V21.2a.7.7 0 0 0-.697-.7z" class="prefix__cls-1" data-name="Path 2424" transform="translate(-9.031 -10.359)"/>
      <path id="prefix__Path_2425" d="M7.328 1H1.7a.7.7 0 0 0-.7.7v4.456a.705.705 0 0 0 .7.7h5.628a.705.705 0 0 0 .7-.7V1.7a.7.7 0 0 0-.7-.7z" class="prefix__cls-1" data-name="Path 2425"/>
  </g>
</symbol>

<symbol id="ic_inbound" xmlns="http://www.w3.org/2000/svg">
  <g id="ic_inbound" data-name="box (1)">
    <path id="prefix__Path_2504" d="M267.05 195.2l-1.672-.624a.629.629 0 0 0-.767.279l-.88 1.553a.629.629 0 1 0 1.094.62l.214-.378.644 1.77a.629.629 0 1 0 1.182-.43l-.639-1.754.383.143a.629.629 0 1 0 .44-1.179zm0 0" class="prefix__cls-1" data-name="Path 2504" transform="translate(-252.917 -186.134)"/>
    <path id="prefix__Path_2505" d="M20.8 11.679a.629.629 0 0 0-.8-.379l-.979.356a.625.625 0 0 0-.033-.294l-2.929-8.035a1.545 1.545 0 0 0-1.981-.927L6.039 5.329a1.568 1.568 0 0 0-.261.124L4.126.913A.629.629 0 0 0 3.32.537L.414 1.6a.629.629 0 0 0 .43 1.182l2.315-.843L7.514 13.9a.632.632 0 0 0 .084.156 2.362 2.362 0 1 0 3.7 1.752l9.127-3.322a.629.629 0 0 0 .375-.807zm-9.13-5.674l-1.47.535-.446-1.224 1.47-.535zM6.3 6.88a.288.288 0 0 1 .172-.368l2.1-.765.661 1.816a.629.629 0 0 0 .806.376l2.652-.965a.629.629 0 0 0 .376-.806l-.661-1.818 2.1-.765a.287.287 0 0 1 .368.172L17.8 11.8a.625.625 0 0 0 .164.246l-7.1 2.583a2.37 2.37 0 0 0-2.137-.982.629.629 0 0 0-.036-.174zm3.023 10.152a1.1 1.1 0 1 1 .66-1.414 1.1 1.1 0 0 1-.66 1.414zm0 0" class="prefix__cls-1" data-name="Path 2505"/>
  </g>
</symbol>

<symbol id="ic_shipment" xmlns="http://www.w3.org/2000/svg" viewBox="10 0 5 17">
  <g id="ic_shipment" transform="translate(0 -31)">
      <path id="prefix__Path_2502" d="M15.169 31H0v4.444h.918v8.888h13.333v-8.888h.918zm-1.807 12.443H1.807v-8h11.555zm.918-8.888H.889v-2.666H14.28z" class="prefix__cls-1" data-name="Path 2502"/>
      <path id="prefix__Path_2503" d="M152.333 213.666h3.555a1.333 1.333 0 0 0 0-2.666h-3.555a1.333 1.333 0 0 0 0 2.666zm0-1.778h3.555a.444.444 0 0 1 0 .889h-3.555a.444.444 0 0 1 0-.889z" class="prefix__cls-1" data-name="Path 2503" transform="translate(-146.526 -174.667)"/>
  </g>
</symbol>

<symbol id="ic_reports" xmlns="http://www.w3.org/2000/svg" viewBox="9 0 5 18" >
  <g id="ic_reports" transform="translate(-64)">
      <g id="prefix__Group_62" data-name="Group 62" transform="translate(66.209 6.626)">
          <g id="prefix__Group_61" data-name="Group 61">
              <path id="prefix__Path_2506" d="M132.279 192.17a.554.554 0 0 0-.782 0l-1.818 1.819-.713-.714a.552.552 0 0 0-.781.781l1.1 1.1a.547.547 0 0 0 .39.162.555.555 0 0 0 .391-.161l2.209-2.209a.552.552 0 0 0 .004-.778z" class="prefix__cls-1" data-name="Path 2506" transform="translate(-128.024 -192.008)"/>
          </g>
      </g>
      <g id="prefix__Group_64" data-name="Group 64" transform="translate(66.209 11.043)">
          <g id="prefix__Group_63" data-name="Group 63">
              <path id="prefix__Path_2507" d="M132.279 320.17a.554.554 0 0 0-.782 0l-1.818 1.819-.713-.713a.552.552 0 0 0-.781.781l1.1 1.1a.553.553 0 0 0 .781 0l2.209-2.209a.552.552 0 0 0 .004-.778z" class="prefix__cls-1" data-name="Path 2507" transform="translate(-128.024 -320.008)"/>
          </g>
      </g>
      <g id="prefix__Group_66" data-name="Group 66" transform="translate(71.73 7.73)">
          <g id="prefix__Group_65" data-name="Group 65">
              <path id="prefix__Path_2508" d="M290.761 224h-2.209a.552.552 0 0 0 0 1.1h2.209a.552.552 0 0 0 0-1.1z" class="prefix__cls-1" data-name="Path 2508" transform="translate(-288 -224)"/>
          </g>
      </g>
      <g id="prefix__Group_68" data-name="Group 68" transform="translate(71.73 12.147)">
          <g id="prefix__Group_67" data-name="Group 67">
              <path id="prefix__Path_2509" d="M290.761 352h-2.209a.552.552 0 0 0 0 1.1h2.209a.552.552 0 1 0 0-1.1z" class="prefix__cls-1" data-name="Path 2509" transform="translate(-288 -352)"/>
          </g>
      </g>
      <g id="prefix__Group_70" data-name="Group 70" transform="translate(64)">
          <g id="prefix__Group_69" data-name="Group 69">
              <path id="prefix__Path_2510" d="M76.147 2.209h-2.209v-.553a.552.552 0 0 0-.552-.552h-1.2a1.658 1.658 0 0 0-3.125 0h-1.2a.552.552 0 0 0-.552.552v.552H65.1a1.106 1.106 0 0 0-1.1 1.1v13.256a1.106 1.106 0 0 0 1.1 1.1h11.047a1.106 1.106 0 0 0 1.1-1.1V3.313a1.106 1.106 0 0 0-1.1-1.104zm-7.73 0h1.1a.552.552 0 0 0 .552-.552.552.552 0 1 1 1.1 0 .552.552 0 0 0 .552.552h1.1v1.1h-4.404zm7.73 14.356H65.1V3.313h2.209v.552a.552.552 0 0 0 .552.552h5.521a.552.552 0 0 0 .552-.552v-.552h2.209z" class="prefix__cls-1" data-name="Path 2510" transform="translate(-64)"/>
          </g>
      </g>
  </g>
</symbol>

<symbol id="ic_products" xmlns="http://www.w3.org/2000/svg">
  <path id="prefix__ic_catalog" fill="#fff" d="M67.056 400.031a.6.6 0 0 0-.629-.685q-3.263-.005-6.529 0a3.008 3.008 0 0 0-1.409.343c-.227.119-.441.266-.661.4a3.306 3.306 0 0 0-2.221-.752q-3.111.005-6.218 0c-.546 0-.752.2-.752.755v7.312q0 1.857.01 3.714a.571.571 0 0 0 .581.584c.119.007.234 0 .381 0h1.427c1.4 0 2.791-.014 4.186 0h.661a3.736 3.736 0 0 1 1.025.21.119.119 0 0 1 .039.022c.742.622 1.629.044 1.839-.026a3.332 3.332 0 0 1 .944-.2c1.661-.017 3.322-.007 4.983-.007a.575.575 0 0 1 .077.007h1.294v-.014c.168 0 .3.01.441 0a.545.545 0 0 0 .511-.5c.01-.378.017-3.11.018-5.466v-1.777zm-1.21 10.488h-6.064a3.079 3.079 0 0 0-1.85.518.172.172 0 0 1-.164 0 3.051 3.051 0 0 0-1.85-.521h-5.865c-.066 0-.136-.007-.206-.01v-9.949a.676.676 0 0 1 .262.005c2.878-.027 5.827-.011 6.116.04a1.089 1.089 0 0 1 1.021 1.241V407.62a1 1 0 0 0 .031.29.6.6 0 0 0 .664.4.583.583 0 0 0 .493-.57c.007-.748 0-.1 0-.85v-5.18a.94.94 0 0 1 .671-.99 2.084 2.084 0 0 1 .72-.157c1.976-.014 3.948-.01 5.924-.014a.442.442 0 0 1 .1.024V410.299c.008.073.001.139-.003.22z" transform="translate(-48.636 -399.342)"/>
</symbol>

<symbol id="ic_inventory" xmlns="http://www.w3.org/2000/svg">
  <g id="ic_inventory" transform="translate(-16.95 -1.95)">
      <path id="prefix__Path_2512" d="M18.463 18.584h12.682a1.463 1.463 0 0 0 1.463-1.463V3.463A1.463 1.463 0 0 0 31.145 2H18.463A1.463 1.463 0 0 0 17 3.463v13.658a1.463 1.463 0 0 0 1.463 1.463zM25.78 2.976v4.453l-.7-.47a.488.488 0 0 0-.541 0l-.7.47V2.976zm-7.8.488a.488.488 0 0 1 .488-.488h4.39v5.365a.488.488 0 0 0 .758.406l1.193-.8 1.193.8a.488.488 0 0 0 .758-.4V2.976h4.39a.488.488 0 0 1 .488.488v13.657a.488.488 0 0 1-.488.488H18.463a.488.488 0 0 1-.488-.488z" class="prefix__cls-1" data-name="Path 2512"/>
      <path id="prefix__Path_2513" d="M24.488 24.366a.488.488 0 0 0 0 .976h7.8a.488.488 0 1 0 0-.976h-.976v-3.7l.631.631a.488.488 0 1 0 .69-.69l-1.463-1.463a.488.488 0 0 0-.69 0l-1.463 1.463a.488.488 0 1 0 .69.69l.631-.631v3.7h-3.9v-3.7l.631.631a.488.488 0 1 0 .69-.69L26.3 19.143a.488.488 0 0 0-.69 0l-1.463 1.463a.488.488 0 1 0 .69.69l.631-.631v3.7z" class="prefix__cls-1" data-name="Path 2513" transform="translate(-3.586 -8.708)"/>
  </g>
</symbol>

<symbol id="ic_warehouse" xmlns="http://www.w3.org/2000/svg">
  <g id="ic_warehouse" transform="translate(-6746.098 -4377.717)">
      <g id="prefix__Group_2674" data-name="Group 2674" transform="translate(6746.098 4377.717)">
          <path id="prefix__Path_2530" d="M63.116 651.114h-3.064a1.514 1.514 0 0 1-1.512-1.514v-3.065a1.514 1.514 0 0 1 1.512-1.512h3.064a1.514 1.514 0 0 1 1.512 1.512v3.065a1.514 1.514 0 0 1-1.512 1.514zm-3.064-5.13a.555.555 0 0 0-.554.554v3.062a.555.555 0 0 0 .554.554h3.064a.555.555 0 0 0 .554-.554v-3.065a.555.555 0 0 0-.554-.554z" class="prefix__cls-1" data-name="Path 2530" transform="translate(-55.898 -634.885)"/>
          <path id="prefix__Path_2531" d="M83.862 651.114H80.8a1.514 1.514 0 0 1-1.512-1.512v-3.065a1.514 1.514 0 0 1 1.512-1.512h3.064a1.514 1.514 0 0 1 1.512 1.512v3.063a1.514 1.514 0 0 1-1.514 1.514zm-3.064-5.13a.555.555 0 0 0-.554.554v3.062a.555.555 0 0 0 .554.554h3.064a.555.555 0 0 0 .554-.554v-3.065a.555.555 0 0 0-.554-.554z" class="prefix__cls-1" data-name="Path 2531" transform="translate(-69.623 -634.885)"/>
          <path id="prefix__Path_2532" d="M68.62 631.551a.639.639 0 0 1-.639-.639v-8.074l-7.706-6.33-8.263 6.151v8.055a.639.639 0 1 1-1.278 0v-8.375a.639.639 0 0 1 .257-.512l8.921-6.641a.639.639 0 0 1 .787.019l8.326 6.839a.639.639 0 0 1 .233.494v8.376a.639.639 0 0 1-.638.637z" class="prefix__cls-1" data-name="Path 2532" transform="translate(-50.734 -615.059)"/>
      </g>
  </g>
</symbol>

<symbol id="ic_seller" xmlns="http://www.w3.org/2000/svg" viewBox="11 0 5 18">
  <g id="ic_seller" transform="translate(-2.748 -2.748)">
      <g id="prefix__Group_2689" data-name="Group 2689" transform="translate(2.748 2.748)">
          <g id="prefix__Group_2688" data-name="Group 2688">
              <path id="prefix__Path_2537" d="M68.978 60a8.955 8.955 0 1 0 8.932 8.978A9.014 9.014 0 0 0 68.978 60zm0 16.536a7.581 7.581 0 1 1 7.558-7.558 7.59 7.59 0 0 1-7.558 7.558z" class="prefix__cls-1" data-name="Path 2537" transform="translate(-60 -60)"/>
          </g>
      </g>
      <g id="prefix__Group_2691" data-name="Group 2691" transform="translate(8.291 5.543)">
          <g id="prefix__Group_2690" data-name="Group 2690">
              <path id="prefix__Path_2538" d="M185.123 126.5v-2.748a1.376 1.376 0 0 1 1.374 1.374h1.374a2.752 2.752 0 0 0-2.748-2.748V121h-1.374v1.374a2.748 2.748 0 0 0 0 5.5v2.748a1.376 1.376 0 0 1-1.374-1.374H181a2.752 2.752 0 0 0 2.748 2.748v1.374h1.374v-1.374a2.748 2.748 0 0 0 0-5.5zm-1.374 0a1.374 1.374 0 1 1 0-2.748zm1.374 4.123v-2.748a1.374 1.374 0 1 1 0 2.748z" class="prefix__cls-1" data-name="Path 2538" transform="translate(-181 -121)"/>
          </g>
      </g>
  </g>
</symbol>

<symbol id="ic_administration" xmlns="http://www.w3.org/2000/svg" viewBox="10 0 5 17">
 <g id="ic_administration" transform="translate(-60.048 -849.767)">
      <g id="prefix__Group_2676" data-name="Group 2676" transform="translate(60.048 849.767)">
          <path id="prefix__Path_2533" d="M89.132 880.11l-.251-.554-1.174.028-.14.492a.578.578 0 0 1-.768.38h-.011a.578.578 0 0 1-.312-.781l.213-.459c-.134-.11-.2-.162-.257-.214-.724-.644-.842-.36-1.258-.276a.6.6 0 0 1-.664-.344.6.6 0 0 1 .29-.793 3.059 3.059 0 0 0 .274-.145.525.525 0 0 0 .211-.358 9.146 9.146 0 0 0-.011-.96l-.476-.136a.564.564 0 0 1-.361-.771v-.01a.564.564 0 0 1 .7-.3l.544.19c.234-.242.467-.459.668-.7a.384.384 0 0 0 .026-.321c-.043-.114-.091-.226-.141-.339a.577.577 0 0 1 .29-.761.58.58 0 0 1 .768.292c.042.094.083.189.121.284a.309.309 0 0 0 .4.231 5.624 5.624 0 0 1 .852-.018l.138-.517a.577.577 0 0 1 .79-.379l.011.005a.576.576 0 0 1 .286.777l-.216.446.929.857.546-.247a.567.567 0 0 1 .75.282.566.566 0 0 1-.282.75l-.534.242.018 1.2.52.16a.58.58 0 0 1 .379.757v.011a.58.58 0 0 1-.769.31l-.5-.218-.785.856.256.565a.584.584 0 0 1-.291.773.584.584 0 0 1-.779-.287zm-.216-1.83a1.766 1.766 0 1 0-2.337-.9 1.773 1.773 0 0 0 2.337.9z" class="prefix__cls-1" data-name="Path 2533" transform="translate(-75.718 -864.601)"/>
          <g id="prefix__Group_2675" data-name="Group 2675">
              <path id="prefix__Path_2534" d="M69.18 859.786a.822.822 0 0 0 .956-.228c.375-.565-.216-.864-.418-.966.294-.327.607-.65.892-1a4.813 4.813 0 1 0-7.463 0c.285.346.6.668.892 1a6.879 6.879 0 0 0-3.985 5.46.689.689 0 0 0 .582.781.677.677 0 0 0 .755-.583 5.91 5.91 0 0 1 1.209-2.85 6.84 6.84 0 0 1 1.521-1.253 5.1 5.1 0 0 1 2.76-.778 14.518 14.518 0 0 1 2.299.417zm-2.31-1.764a3.453 3.453 0 0 1-.457-6.872 3.315 3.315 0 0 1 .93 0 3.453 3.453 0 0 1-.457 6.872h-.016z" class="prefix__cls-1" data-name="Path 2534" transform="translate(-60.048 -849.767)"/>
          </g>
      </g>
  </g>
</symbol>

<symbol id="ic_invoice" xmlns="http://www.w3.org/2000/svg" viewBox="10 0 5 17">
  <g id="ic_invoice" transform="translate(0 -.499)">
        <path id="prefix__Path_2517" fill="#fff" d="M13.354 7.281L13.008 4.3c1.35-.978 1.909-2.62 1.1-3.428a1.519 1.519 0 0 0-1.48-.309 3.388 3.388 0 0 0-1.523.909l-.016.017L7.1 1.027 0 8.126l6.254 6.254zm-.518-5.894a.714.714 0 0 1 .673.086c.314.314.026 1.186-.617 1.819l-.1-.854-.692-.695a2.262 2.262 0 0 1 .735-.356zm-5.426.531l3.082.357a2.914 2.914 0 0 0-.288.7l-.3-.3-.6.6 1.8 1.8.6-.6-.6-.6a.714.714 0 0 1-.086-.673 2.33 2.33 0 0 1 .415-.817l.116.013.432.432.48 4.142-6.207 6.207L1.2 8.126zm0 0" data-name="Path 2517"/>
    </g>
</symbol>


</svg>

